<?xml version="1.0" encoding="UTF-8"?>
<svg height="16px" viewBox="0 0 16 16" width="16px" xmlns="http://www.w3.org/2000/svg">
    <path d="m 6.046875 2.738281 c -4.101563 0 -7.425781 3.230469 -7.425781 7.214844 c 0 3.980469 3.324218 7.210937 7.425781 7.210937 c 4.097656 0 7.425781 -3.230468 7.425781 -7.210937 c 0 -3.984375 -3.328125 -7.214844 -7.425781 -7.214844 z m 0 1.800781 c 3.074219 0 5.566406 2.425782 5.566406 5.414063 c 0 2.984375 -2.492187 5.410156 -5.566406 5.410156 s -5.570313 -2.425781 -5.570313 -5.410156 c 0 -2.988281 2.496094 -5.414063 5.570313 -5.414063 z m 0 0"/>
    <path d="m 5.152344 5.441406 v 0.835938 c -1.359375 0.238281 -2.152344 1.023437 -2.152344 2.195312 c 0 1.070313 0.675781 1.789063 1.894531 2 l 1.652344 0.277344 c 0.746094 0.125 1.035156 0.324219 1.035156 0.730469 c 0 0.449219 -0.503906 0.710937 -1.347656 0.710937 c -0.867187 0 -1.585937 -0.292968 -2.496094 -1.011718 l -1.03125 1.296874 c 0.6875 0.574219 1.554688 0.964844 2.445313 1.132813 v 0.847656 h 1.855468 v -0.828125 c 1.492188 -0.242187 2.375 -1.082031 2.375 -2.324218 c 0 -1.125 -0.761718 -1.839844 -2.207031 -2.070313 l -1.550781 -0.25 c -0.636719 -0.105469 -0.890625 -0.285156 -0.890625 -0.648437 c 0 -0.394532 0.460937 -0.632813 1.207031 -0.632813 c 0.796875 0 1.511719 0.269531 2.308594 0.863281 l 0.96875 -1.320312 c -0.597656 -0.46875 -1.390625 -0.804688 -2.210938 -0.953125 v -0.851563 z m 0 0"/>
</svg>
