<?xml version="1.0" encoding="UTF-8"?>
<svg height="16px" viewBox="0 0 16 16" width="16px" xmlns="http://www.w3.org/2000/svg">
    <path d="m 8 0.785156 c -4.101562 0 -7.425781 3.234375 -7.425781 7.21875 c 0 3.980469 3.324219 7.210938 7.425781 7.210938 c 4.097656 0 7.425781 -3.230469 7.425781 -7.210938 c 0 -3.984375 -3.328125 -7.21875 -7.425781 -7.21875 z m 0 1.804688 c 3.074219 0 5.566406 2.425781 5.566406 5.414062 c 0 2.984375 -2.492187 5.40625 -5.566406 5.40625 s -5.570312 -2.421875 -5.570312 -5.40625 c 0 -2.988281 2.496093 -5.414062 5.570312 -5.414062 z m 0 0"/>
    <path d="m 7.109375 3.492188 v 0.835937 c -1.363281 0.238281 -2.15625 1.023437 -2.15625 2.195313 c 0 1.070312 0.679687 1.789062 1.898437 2 l 1.652344 0.277343 c 0.742188 0.125 1.03125 0.324219 1.03125 0.730469 c 0 0.449219 -0.503906 0.710938 -1.34375 0.710938 c -0.871094 0 -1.585937 -0.292969 -2.496094 -1.011719 l -1.035156 1.296875 c 0.691406 0.574218 1.558594 0.964844 2.449219 1.132812 v 0.847656 h 1.855469 v -0.828124 c 1.488281 -0.242188 2.375 -1.082032 2.375 -2.324219 c 0 -1.125 -0.765625 -1.839844 -2.207032 -2.070313 l -1.554687 -0.25 c -0.632813 -0.105468 -0.886719 -0.285156 -0.886719 -0.648437 c 0 -0.394531 0.460938 -0.632813 1.207032 -0.632813 c 0.796874 0 1.507812 0.269532 2.304687 0.863282 l 0.972656 -1.320313 c -0.601562 -0.46875 -1.394531 -0.804687 -2.210937 -0.953125 v -0.851562 z m 0 0"/>
</svg>
