<?xml version="1.0" encoding="UTF-8"?>
<svg height="16px" viewBox="0 0 16 16" width="16px" xmlns="http://www.w3.org/2000/svg">
    <path d="m 3.574219 1.910156 c 1.3125 -1.164062 3.042969 -1.8710935 4.9375 -1.8710935 c 4.113281 0 7.449219 3.3359375 7.449219 7.4492185 c 0 1.585938 -0.496094 3.050781 -1.335938 4.257813 l -2.015625 -4.257813 h 1.859375 c 0 -3.292969 -2.667969 -5.960937 -5.957031 -5.960937 c -1.675781 0 -3.183594 0.691406 -4.269531 1.800781 z m 9.871093 11.160156 c -1.3125 1.164063 -3.042968 1.871094 -4.933593 1.871094 c -4.117188 0 -7.453125 -3.335937 -7.453125 -7.453125 c 0 -1.582031 0.496094 -3.050781 1.335937 -4.257812 l 2.015625 4.257812 h -1.859375 c 0 3.292969 2.667969 5.960938 5.960938 5.960938 c 1.671875 0 3.179687 -0.6875 4.265625 -1.796875 z m -7.542968 -4.089843 h 4.097656 c 0.207031 0 0.371094 -0.167969 0.371094 -0.375 c 0 -0.203125 -0.164063 -0.371094 -0.371094 -0.371094 h -2.980469 c -1.027343 0 -1.863281 -0.835937 -1.863281 -1.863281 s 0.835938 -1.863282 1.863281 -1.863282 h 0.746094 v -0.742187 h 1.488281 v 0.742187 h 1.863282 v 1.492188 h -4.097657 c -0.207031 0 -0.371093 0.164062 -0.371093 0.371094 c 0 0.207031 0.164062 0.371094 0.371093 0.371094 h 2.980469 c 1.027344 0 1.863281 0.835937 1.863281 1.863281 c 0 1.03125 -0.835937 1.863281 -1.863281 1.863281 h -0.746094 v 0.746094 h -1.488281 v -0.746094 h -1.863281 z m 0 0"/>
</svg>
