<?xml version="1.0" encoding="UTF-8"?>
<svg height="128px" viewBox="0 0 128 128" width="128px" xmlns="http://www.w3.org/2000/svg" xmlns:xlink="http://www.w3.org/1999/xlink">
    <linearGradient id="a" gradientUnits="userSpaceOnUse" x1="8.8032985" x2="120.8032985" y1="116.267718" y2="116.267718">
        <stop offset="0" stop-color="#257f55"/>
        <stop offset="0.036" stop-color="#5cdf97"/>
        <stop offset="0.071" stop-color="#2fa66f"/>
        <stop offset="0.929" stop-color="#2fa66f"/>
        <stop offset="0.964" stop-color="#5cdf97"/>
        <stop offset="1" stop-color="#257f55"/>
    </linearGradient>
    <linearGradient id="b" gradientUnits="userSpaceOnUse">
        <stop offset="0" stop-color="#e5a30a"/>
        <stop offset="1" stop-color="#835e06"/>
    </linearGradient>
    <radialGradient id="c" cx="-361.96701" cy="279.617004" gradientTransform="matrix(1.559088 0.28485 -0.14791 1.037577 689.285474 -90.078449)" r="21.205999" xlink:href="#b"/>
    <radialGradient id="d" cx="-361.96701" cy="279.617004" gradientTransform="matrix(1.559088 0.284858 -0.14791 1.037608 685.005243 -82.143231)" r="21.205999" xlink:href="#b"/>
    <radialGradient id="e" cx="-361.96701" cy="279.617004" gradientTransform="matrix(1.559088 0.28485 -0.14791 1.037578 694.600014 -73.97475)" r="21.205999" xlink:href="#b"/>
    <radialGradient id="f" cx="-361.96701" cy="279.617004" gradientTransform="matrix(1.559081 0.284853 -0.147909 1.037587 652.072877 -73.977001)" r="21.205999" xlink:href="#b"/>
    <radialGradient id="g" cx="-361.96701" cy="279.617004" gradientTransform="matrix(1.487783 -0.560352 0.37302 0.975132 488.564678 -372.539015)" r="21.205999" xlink:href="#b"/>
    <path d="m 16.804688 40.269531 h 96 c 4.417968 0 8 3.578125 8 8 v 60 c 0 4.417969 -3.582032 8 -8 8 h -96 c -4.417969 0 -8 -3.582031 -8 -8 v -60 c 0 -4.421875 3.582031 -8 8 -8 z m 0 0" fill="url(#a)"/>
    <path d="m 16.777344 27.828125 h 96 c 4.417968 0 8 3.582031 8 8 v 58 c 0 4.417969 -3.582032 8 -8 8 h -96 c -4.417969 0 -8 -3.582031 -8 -8 v -58 c 0 -4.417969 3.582031 -8 8 -8 z m 0 0" fill="#57e389"/>
    <path d="m 23.277344 37.328125 h 83 c 3.3125 0 6 2.6875 6 6 v 42.996094 c 0 3.316406 -2.6875 6 -6 6 h -83 c -3.316406 0 -6 -2.683594 -6 -6 v -42.996094 c 0 -3.3125 2.683594 -6 6 -6 z m 0 0" fill="#26a269"/>
    <g fill="#57e389">
        <path d="m 28.777344 37.828125 c 0 5.523437 -4.476563 10 -10 10 c -5.523438 0 -10 -4.476563 -10 -10 s 4.476562 -10 10 -10 c 5.523437 0 10 4.476563 10 10 z m 0 0"/>
        <path d="m 120.777344 37.828125 c 0 5.523437 -4.476563 10 -10 10 c -5.523438 0 -10 -4.476563 -10 -10 s 4.476562 -10 10 -10 c 5.523437 0 10 4.476563 10 10 z m 0 0"/>
        <path d="m 120.777344 91.828125 c 0 5.523437 -4.476563 10 -10 10 c -5.523438 0 -10 -4.476563 -10 -10 s 4.476562 -10 10 -10 c 5.523437 0 10 4.476563 10 10 z m 0 0"/>
        <path d="m 28.777344 91.828125 c 0 5.523437 -4.476563 10 -10 10 c -5.523438 0 -10 -4.476563 -10 -10 s 4.476562 -10 10 -10 c 5.523437 0 10 4.476563 10 10 z m 0 0"/>
    </g>
    <path d="m 100.75 100.933594 l -0.664062 -2.976563 c -0.664063 -2.980469 -1.996094 -8.9375 1.285156 -12.171875 c 3.28125 -3.230468 11.171875 -3.742187 15.117187 -3.996094 l 3.941407 -0.253906" fill-opacity="0.360784"/>
    <path d="m 100.570312 101.914062 l -0.144531 -3.648437 c -0.144531 -3.652344 -0.429687 -10.957031 2.953125 -14.34375 c 3.386719 -3.390625 10.445313 -2.863281 13.972656 -2.601563 l 3.53125 0.261719" fill="#8ff0a4"/>
    <path d="m 43.019531 52.214844 h 43.515625 c 3.3125 0 6 2.6875 6 6 v 13.226562 c 0 3.3125 -2.6875 6 -6 6 h -43.515625 c -3.316406 0 -6 -2.6875 -6 -6 v -13.226562 c 0 -3.3125 2.683594 -6 6 -6 z m 0 0" fill="#57e389"/>
    <path d="m 52.597656 27.828125 h 24.359375 v 74.042969 h -24.359375 z m 0 0" fill="#ffffff"/>
    <path d="m 52.625 116.269531 h 24.359375 v -14.421875 h -24.359375 z m 0 0" fill="#ffffff" fill-opacity="0.85098"/>
    <path d="m 79.707031 92.011719 h 32.132813 c 2 0 3.621094 1.824219 3.621094 4.078125 c 0 2.25 -1.621094 4.078125 -3.621094 4.078125 h -32.132813 c -2 0 -3.621093 -1.828125 -3.621093 -4.078125 c 0 -2.253906 1.621093 -4.078125 3.621093 -4.078125 z m 0 0" fill="url(#c)"/>
    <path d="m 75.425781 99.953125 h 32.132813 c 2 0 3.621094 1.828125 3.621094 4.078125 s -1.621094 4.074219 -3.621094 4.074219 h -32.132813 c -2 0 -3.621093 -1.824219 -3.621093 -4.074219 s 1.621093 -4.078125 3.621093 -4.078125 z m 0 0" fill="url(#d)"/>
    <path d="m 85.023438 108.113281 h 32.132812 c 2 0 3.621094 1.828125 3.621094 4.078125 s -1.625 4.078125 -3.621094 4.078125 h -32.132812 c -2 0 -3.621094 -1.828125 -3.621094 -4.078125 s 1.621094 -4.078125 3.621094 -4.078125 z m 0 0" fill="url(#e)"/>
    <path d="m 42.496094 108.113281 h 32.136718 c 1.996094 0 3.617188 1.828125 3.617188 4.078125 s -1.621094 4.078125 -3.617188 4.078125 h -32.136718 c -2 0 -3.621094 -1.828125 -3.621094 -4.078125 s 1.621094 -4.078125 3.621094 -4.078125 z m 0 0" fill="url(#f)"/>
    <path d="m 48.597656 100.695312 l 27.828125 -16.632812 c 1.730469 -1.035156 4.015625 -0.292969 5.105469 1.65625 c 1.085938 1.949219 0.5625 4.371094 -1.167969 5.40625 l -27.828125 16.632812 c -1.734375 1.035157 -4.019531 0.292969 -5.105468 -1.65625 c -1.085938 -1.949218 -0.5625 -4.371093 1.167968 -5.40625 z m 0 0" fill="url(#g)"/>
</svg>
