<?xml version="1.0" encoding="UTF-8"?>
<svg height="128px" viewBox="0 0 128 128" width="128px" xmlns="http://www.w3.org/2000/svg">
    <path d="m 19.839844 51.402344 h 88.382812 c 3.972656 0 7.1875 2.746094 7.1875 6.132812 v 52.109375 c 0 3.382813 -3.214844 6.128907 -7.1875 6.128907 h -88.382812 c -3.96875 0 -7.1875 -2.746094 -7.1875 -6.128907 v -52.109375 c 0 -3.386718 3.21875 -6.132812 7.1875 -6.132812 z m 0 0" fill="#118a3f" fill-opacity="0.670588"/>
    <path d="m 19.707031 45.445312 h 88.554688 c 3.96875 0 7.1875 2.742188 7.1875 6.128907 v 52.109375 c 0 3.386718 -3.21875 6.132812 -7.1875 6.132812 h -88.554688 c -3.96875 0 -7.1875 -2.746094 -7.1875 -6.132812 v -52.109375 c 0 -3.386719 3.21875 -6.128907 7.1875 -6.128907 z m 0 0" fill="#4ccf7e"/>
    <path d="m 31.335938 56.789062 h 65.292968 c 4.160156 0 7.53125 2.929688 7.53125 6.546876 v 28.585937 c 0 3.617187 -3.371094 6.550781 -7.53125 6.550781 h -65.292968 c -4.15625 0 -7.527344 -2.933594 -7.527344 -6.550781 v -28.585937 c 0 -3.617188 3.371094 -6.546876 7.527344 -6.546876 z m 0 0" fill="#26a269"/>
    <g fill="#4ccf7e">
        <path d="m 34.832031 60.761719 c 0 4.394531 -3.289062 7.957031 -7.351562 7.957031 c -4.058594 0 -7.351563 -3.5625 -7.351563 -7.957031 c 0 -4.390625 3.292969 -7.953125 7.351563 -7.953125 c 4.0625 0 7.351562 3.5625 7.351562 7.953125 z m 0 0"/>
        <path d="m 107.839844 60.761719 c 0 4.394531 -3.292969 7.957031 -7.355469 7.957031 c -4.058594 0 -7.351563 -3.5625 -7.351563 -7.957031 c 0 -4.390625 3.292969 -7.953125 7.351563 -7.953125 c 4.0625 0 7.355469 3.5625 7.355469 7.953125 z m 0 0"/>
        <path d="m 34.832031 94.496094 c 0 4.390625 -3.289062 7.953125 -7.351562 7.953125 c -4.058594 0 -7.351563 -3.5625 -7.351563 -7.953125 c 0 -4.394532 3.292969 -7.957032 7.351563 -7.957032 c 4.0625 0 7.351562 3.5625 7.351562 7.957032 z m 0 0"/>
        <path d="m 107.839844 94.496094 c 0 4.390625 -3.292969 7.953125 -7.355469 7.953125 c -4.058594 0 -7.351563 -3.5625 -7.351563 -7.953125 c 0 -4.394532 3.292969 -7.957032 7.351563 -7.957032 c 4.0625 0 7.355469 3.5625 7.355469 7.957032 z m 0 0"/>
        <path d="m 41.539062 62.117188 h 44.890626 c 2.136718 0 3.867187 1.476562 3.867187 3.296874 v 24.429688 c 0 1.820312 -1.730469 3.296875 -3.867187 3.296875 h -44.890626 c -2.136718 0 -3.867187 -1.476563 -3.867187 -3.296875 v -24.429688 c 0 -1.820312 1.730469 -3.296874 3.867187 -3.296874 z m 0 0"/>
    </g>
    <path d="m 58.85727 79.537759 v 3.642079 l -5.517405 -5.46112 l 5.517405 -5.46112 v 3.102364 c 0 0.295844 0.239887 0.539716 0.539746 0.539716 h 9.606731 c 0.296111 0 0.539747 0.239873 0.539747 0.535717 v 1.363281" fill="none" stroke="#ffffff" stroke-linecap="round" stroke-linejoin="round" stroke-width="2.38314" transform="matrix(1.042157 0 0 0.977077 -4.467397 -0.417679)"/>
    <path d="m 76.847656 79.738281 l -5.558594 5.335938 v -3.636719 h -10.527343 c -0.308594 0 -0.5625 -0.234375 -0.5625 -0.523438 v -2.347656 c 0 -0.289062 0.253906 -0.523437 0.5625 -0.523437 h 10.527343 v -3.640625 z m 0 0" fill="#ffffff"/>
</svg>
