<?xml version="1.0" encoding="UTF-8"?>
<svg height="128px" viewBox="0 0 128 128" width="128px" xmlns="http://www.w3.org/2000/svg" xmlns:xlink="http://www.w3.org/1999/xlink">
    <linearGradient id="a" gradientUnits="userSpaceOnUse">
        <stop offset="0" stop-color="#1a915a"/>
        <stop offset="0.036" stop-color="#5cdf97"/>
        <stop offset="0.07" stop-color="#26a269"/>
        <stop offset="0.929" stop-color="#26a269"/>
        <stop offset="0.964" stop-color="#5cdf97"/>
        <stop offset="1" stop-color="#1a915a"/>
    </linearGradient>
    <linearGradient id="b" gradientTransform="matrix(0.247304 0 0 0.212061 -13.357094 211.238988)" x1="88.595886" x2="536.595886" xlink:href="#a" y1="-449.394012" y2="-449.394012"/>
    <linearGradient id="c" gradientTransform="matrix(0.247304 0 0 0.21217 -13.357154 199.326618)" gradientUnits="userSpaceOnUse" x1="88.595886" x2="536.595886" y1="-449.394012" y2="-449.394012">
        <stop offset="0" stop-color="#257f55" stop-opacity="0.819608"/>
        <stop offset="0.036" stop-color="#5cdf97" stop-opacity="0.819608"/>
        <stop offset="0.072" stop-color="#26a269" stop-opacity="0.819608"/>
        <stop offset="0.876" stop-color="#26a269" stop-opacity="0.819608"/>
        <stop offset="0.929" stop-color="#2a8b5f" stop-opacity="0.819608"/>
        <stop offset="0.964" stop-color="#59cb8c" stop-opacity="0.819608"/>
        <stop offset="1" stop-color="#258a5b" stop-opacity="0.819608"/>
    </linearGradient>
    <linearGradient id="d" gradientTransform="matrix(0.247304 0 0 0.212061 -13.356158 197.241754)" x1="88.595886" x2="536.595886" xlink:href="#a" y1="-449.394012" y2="-449.394012"/>
    <linearGradient id="e" gradientTransform="matrix(0.247304 0 0 0.212061 -13.357124 195.243455)" gradientUnits="userSpaceOnUse" x1="88.595886" x2="536.595886" y1="-449.394012" y2="-449.394012">
        <stop offset="0" stop-color="#257f55" stop-opacity="0.819608"/>
        <stop offset="0.036" stop-color="#5cdf97" stop-opacity="0.819608"/>
        <stop offset="0.072" stop-color="#26a269" stop-opacity="0.819608"/>
        <stop offset="0.783" stop-color="#26a269" stop-opacity="0.819608"/>
        <stop offset="0.929" stop-color="#2a8b5f" stop-opacity="0.819608"/>
        <stop offset="0.964" stop-color="#59cb8c" stop-opacity="0.819608"/>
        <stop offset="1" stop-color="#258a5b" stop-opacity="0.819608"/>
    </linearGradient>
    <linearGradient id="f" gradientTransform="matrix(0.247304 0 0 0.212061 -13.35649 193.240263)" x1="88.595886" x2="536.595886" xlink:href="#a" y1="-449.394012" y2="-449.394012"/>
    <linearGradient id="g" gradientTransform="matrix(0.247304 0 0 0.212061 -13.356822 191.241472)" gradientUnits="userSpaceOnUse" x1="88.595886" x2="536.595886" y1="-449.394012" y2="-449.394012">
        <stop offset="0" stop-color="#257f55" stop-opacity="0.819608"/>
        <stop offset="0.036" stop-color="#5cdf97" stop-opacity="0.819608"/>
        <stop offset="0.071" stop-color="#26a269" stop-opacity="0.819608"/>
        <stop offset="0.707" stop-color="#26a269" stop-opacity="0.819608"/>
        <stop offset="0.929" stop-color="#298f60" stop-opacity="0.819608"/>
        <stop offset="0.964" stop-color="#55ba83" stop-opacity="0.819608"/>
        <stop offset="1" stop-color="#257f55" stop-opacity="0.819608"/>
    </linearGradient>
    <linearGradient id="h" gradientTransform="matrix(0.247304 0 0 0.212061 -13.356701 189.238875)" x1="88.595886" x2="536.595886" xlink:href="#a" y1="-449.394012" y2="-449.394012"/>
    <linearGradient id="i" gradientTransform="matrix(0.247304 0 0 0.212061 -13.356701 187.239359)" gradientUnits="userSpaceOnUse" x1="88.595886" x2="536.595886" y1="-449.394012" y2="-449.394012">
        <stop offset="0" stop-color="#1a915a" stop-opacity="0.819608"/>
        <stop offset="0.036" stop-color="#5cdf97" stop-opacity="0.819608"/>
        <stop offset="0.071" stop-color="#26a269" stop-opacity="0.819608"/>
        <stop offset="0.642" stop-color="#26a269" stop-opacity="0.819608"/>
        <stop offset="0.929" stop-color="#2f7555" stop-opacity="0.501961"/>
        <stop offset="0.964" stop-color="#55ba83" stop-opacity="0.819608"/>
        <stop offset="1" stop-color="#1a915a" stop-opacity="0.819608"/>
    </linearGradient>
    <linearGradient id="j" gradientUnits="userSpaceOnUse">
        <stop offset="0" stop-color="#e5a30a"/>
        <stop offset="1" stop-color="#835e06"/>
    </linearGradient>
    <radialGradient id="k" cx="-361.96701" cy="279.617004" gradientTransform="matrix(1.542278 0.241623 -0.146315 0.88012 681.698281 -59.09218)" r="21.205999" xlink:href="#j"/>
    <radialGradient id="l" cx="-361.96701" cy="279.617004" gradientTransform="matrix(1.542278 0.24163 -0.146315 0.880146 677.4642 -52.361172)" r="21.205999" xlink:href="#j"/>
    <radialGradient id="m" cx="-361.96701" cy="279.617004" gradientTransform="matrix(1.542278 0.241623 -0.146315 0.88012 686.95552 -45.432298)" r="21.205999" xlink:href="#j"/>
    <radialGradient id="n" cx="-361.96701" cy="279.617004" gradientTransform="matrix(1.542271 0.241625 -0.146315 0.880128 644.88691 -45.434208)" r="21.205999" xlink:href="#j"/>
    <radialGradient id="o" cx="-361.96701" cy="279.617004" gradientTransform="matrix(1.471742 -0.475316 0.368998 0.827151 483.141658 -298.68795)" r="21.205999" xlink:href="#j"/>
    <path d="m 16.464844 51.472656 h 94.96875 c 4.367187 0 7.910156 3.039063 7.910156 6.785156 v 50.894532 c 0 3.75 -3.542969 6.789062 -7.910156 6.789062 h -94.96875 c -4.367188 0 -7.910156 -3.039062 -7.910156 -6.789062 v -50.894532 c 0 -3.746093 3.542968 -6.785156 7.910156 -6.785156 z m 0 0" fill="url(#b)"/>
    <path d="m 16.464844 39.472656 h 94.96875 c 4.367187 0 7.910156 3.039063 7.910156 6.785156 v 50.929688 c 0 3.746094 -3.542969 6.785156 -7.910156 6.785156 h -94.96875 c -4.367188 0 -7.910156 -3.039062 -7.910156 -6.785156 v -50.929688 c 0 -3.746093 3.542968 -6.785156 7.910156 -6.785156 z m 0 0" fill="url(#c)"/>
    <path d="m 16.464844 37.472656 h 94.96875 c 4.367187 0 7.910156 3.039063 7.910156 6.785156 v 50.894532 c 0 3.75 -3.542969 6.785156 -7.910156 6.785156 h -94.96875 c -4.367188 0 -7.910156 -3.035156 -7.910156 -6.785156 v -50.894532 c 0 -3.746093 3.542968 -6.785156 7.910156 -6.785156 z m 0 0" fill="url(#d)"/>
    <path d="m 16.464844 35.472656 h 94.96875 c 4.367187 0 7.910156 3.039063 7.910156 6.785156 v 50.894532 c 0 3.75 -3.542969 6.785156 -7.910156 6.785156 h -94.96875 c -4.367188 0 -7.910156 -3.035156 -7.910156 -6.785156 v -50.894532 c 0 -3.746093 3.542968 -6.785156 7.910156 -6.785156 z m 0 0" fill="url(#e)"/>
    <path d="m 16.464844 33.472656 h 94.96875 c 4.367187 0 7.910156 3.039063 7.910156 6.785156 v 50.894532 c 0 3.75 -3.542969 6.785156 -7.910156 6.785156 h -94.96875 c -4.367188 0 -7.910156 -3.035156 -7.910156 -6.785156 v -50.894532 c 0 -3.746093 3.542968 -6.785156 7.910156 -6.785156 z m 0 0" fill="url(#f)"/>
    <path d="m 16.464844 31.472656 h 94.96875 c 4.367187 0 7.910156 3.039063 7.910156 6.785156 v 50.894532 c 0 3.746094 -3.542969 6.785156 -7.910156 6.785156 h -94.96875 c -4.367188 0 -7.910156 -3.039062 -7.910156 -6.785156 v -50.894532 c 0 -3.746093 3.542968 -6.785156 7.910156 -6.785156 z m 0 0" fill="url(#g)"/>
    <path d="m 20.363281 29.472656 h 87.171875 c 6.523438 0 11.808594 4.53125 11.808594 10.125 v 44.214844 c 0 5.59375 -5.285156 10.125 -11.808594 10.125 h -87.171875 c -6.523437 0 -11.808593 -4.53125 -11.808593 -10.125 v -44.214844 c 0 -5.59375 5.285156 -10.125 11.808593 -10.125 z m 0 0" fill="url(#h)"/>
    <path d="m 20.363281 27.472656 h 87.171875 c 6.523438 0 11.808594 4.53125 11.808594 10.125 v 44.214844 c 0 5.59375 -5.285156 10.125 -11.808594 10.125 h -87.171875 c -6.523437 0 -11.808593 -4.53125 -11.808593 -10.125 v -44.214844 c 0 -5.59375 5.285156 -10.125 11.808593 -10.125 z m 0 0" fill="url(#i)"/>
    <path d="m 20.335938 27.347656 h 87.171874 c 6.523438 0 11.8125 4.535156 11.8125 10.128906 v 42.515626 c 0 5.59375 -5.289062 10.128906 -11.8125 10.128906 h -87.171874 c -6.523438 0 -11.808594 -4.535156 -11.808594 -10.128906 v -42.515626 c 0 -5.59375 5.285156 -10.128906 11.808594 -10.128906 z m 0 0" fill="#57e389"/>
    <path d="m 22.871094 35.410156 h 82.105468 c 3.277344 0 5.933594 2.277344 5.933594 5.085938 v 36.472656 c 0 2.8125 -2.65625 5.089844 -5.933594 5.089844 h -82.105468 c -3.277344 0 -5.9375 -2.277344 -5.9375 -5.089844 v -36.472656 c 0 -2.808594 2.660156 -5.085938 5.9375 -5.085938 z m 0 0" fill="#26a269"/>
    <g fill="#57e389">
        <path d="m 28.527344 37.347656 c 0 5.523438 -4.476563 10 -10 10 c -5.523438 0 -10 -4.476562 -10 -10 c 0 -5.519531 4.476562 -10 10 -10 c 5.523437 0 10 4.480469 10 10 z m 0 0"/>
        <path d="m 119.320312 37.347656 c 0 5.523438 -4.480468 10 -10 10 c -5.523437 0 -10 -4.476562 -10 -10 c 0 -5.519531 4.476563 -10 10 -10 c 5.519532 0 10 4.480469 10 10 z m 0 0"/>
        <path d="m 119.320312 80.121094 c 0 5.519531 -4.480468 10 -10 10 c -5.523437 0 -10 -4.480469 -10 -10 c 0 -5.523438 4.476563 -10 10 -10 c 5.519532 0 10 4.476562 10 10 z m 0 0"/>
        <path d="m 28.527344 80.121094 c 0 5.519531 -4.476563 10 -10 10 c -5.523438 0 -10 -4.480469 -10 -10 c 0 -5.523438 4.476562 -10 10 -10 c 5.523437 0 10 4.476562 10 10 z m 0 0"/>
    </g>
    <path d="m 95.695312 89.128906 l -0.78125 -2.839844 c -0.78125 -2.84375 -2.347656 -8.527343 1.511719 -11.613281 c 3.855469 -3.085937 13.136719 -3.574219 17.777344 -3.816406 l 4.636719 -0.242187" fill-opacity="0.360784"/>
    <path d="m 95.480469 90.066406 l -0.046875 -3.605468 c -0.046875 -3.605469 -0.140625 -10.820313 3.839844 -14.054688 c 3.984374 -3.234375 12.039062 -2.488281 16.070312 -2.117188 l 4.027344 0.371094" fill="#8ff0a4"/>
    <path d="m 42.398438 48.035156 h 43.046874 c 3.28125 0 5.9375 2.28125 5.9375 5.089844 v 11.21875 c 0 2.808594 -2.65625 5.089844 -5.9375 5.089844 h -43.046874 c -3.277344 0 -5.933594 -2.28125 -5.933594 -5.089844 v -11.21875 c 0 -2.808594 2.65625 -5.089844 5.933594 -5.089844 z m 0 0" fill="#57e389"/>
    <path d="m 51.875 27.347656 h 24.097656 v 62.808594 h -24.097656 z m 0 0" fill="#ffffff"/>
    <path d="m 51.902344 115.898438 h 24.097656 v -25.761719 h -24.097656 z m 0 0" fill="#ffffff" fill-opacity="0.85098"/>
    <path d="m 78.691406 95.367188 h 31.789063 c 1.976562 0 3.578125 1.546874 3.578125 3.457031 c 0 1.910156 -1.601563 3.457031 -3.578125 3.457031 h -31.789063 c -1.980468 0 -3.582031 -1.546875 -3.582031 -3.457031 c 0 -1.910157 1.605469 -3.457031 3.582031 -3.457031 z m 0 0" fill="url(#k)"/>
    <path d="m 74.457031 102.101562 h 31.789063 c 1.976562 0 3.582031 1.550782 3.582031 3.457032 c 0 1.910156 -1.605469 3.457031 -3.582031 3.457031 h -31.789063 c -1.976562 0 -3.578125 -1.546875 -3.578125 -3.457031 c -0.003906 -1.90625 1.601563 -3.457032 3.578125 -3.457032 z m 0 0" fill="url(#l)"/>
    <path d="m 83.949219 109.023438 h 31.789062 c 1.976563 0 3.582031 1.550781 3.582031 3.460937 c 0 1.90625 -1.605468 3.457031 -3.582031 3.457031 h -31.789062 c -1.976563 0 -3.582031 -1.550781 -3.582031 -3.457031 c 0 -1.910156 1.605468 -3.460937 3.582031 -3.460937 z m 0 0" fill="url(#m)"/>
    <path d="m 41.882812 109.023438 h 31.789063 c 1.976563 0 3.582031 1.546874 3.582031 3.457031 c 0 1.910156 -1.605468 3.460937 -3.582031 3.460937 h -31.789063 c -1.976562 0 -3.582031 -1.550781 -3.582031 -3.460937 c 0 -1.910157 1.605469 -3.457031 3.582031 -3.457031 z m 0 0" fill="url(#n)"/>
    <path d="m 47.917969 102.730469 l 27.527343 -14.109375 c 1.714844 -0.875 3.976563 -0.246094 5.050782 1.40625 c 1.074218 1.652344 0.558594 3.707031 -1.152344 4.585937 l -27.53125 14.109375 c -1.710938 0.875 -3.972656 0.246094 -5.046875 -1.40625 c -1.078125 -1.65625 -0.558594 -3.707031 1.152344 -4.585937 z m 0 0" fill="url(#o)"/>
</svg>
