<?xml version="1.0" encoding="UTF-8"?>
<svg height="128px" viewBox="0 0 128 128" width="128px" xmlns="http://www.w3.org/2000/svg">
    <path d="m 19.78125 51.066406 h 88.382812 c 3.96875 0 7.1875 2.746094 7.1875 6.132813 v 52.109375 c 0 3.382812 -3.21875 6.128906 -7.1875 6.128906 h -88.382812 c -3.972656 0 -7.1875 -2.746094 -7.1875 -6.128906 v -52.109375 c 0 -3.386719 3.214844 -6.132813 7.1875 -6.132813 z m 0 0" fill="#118a3f" fill-opacity="0.670588"/>
    <path d="m 19.644531 45.109375 h 88.554688 c 3.96875 0 7.1875 2.742187 7.1875 6.128906 v 52.109375 c 0 3.386719 -3.21875 6.132813 -7.1875 6.132813 h -88.554688 c -3.96875 0 -7.1875 -2.746094 -7.1875 -6.132813 v -52.109375 c 0 -3.386719 3.21875 -6.128906 7.1875 -6.128906 z m 0 0" fill="#4ccf7e"/>
    <path d="m 31.628906 56.90625 h 65.292969 c 4.15625 0 7.53125 2.933594 7.53125 6.550781 v 28.585938 c 0 3.617187 -3.375 6.546875 -7.53125 6.546875 h -65.292969 c -4.160156 0 -7.53125 -2.929688 -7.53125 -6.546875 v -28.585938 c 0 -3.617187 3.371094 -6.550781 7.53125 -6.550781 z m 0 0" fill="#26a269"/>
    <g fill="#4ccf7e">
        <path d="m 31.097656 56.910156 c 0 3.867188 -3.132812 7 -7 7 c -3.863281 0 -7 -3.132812 -7 -7 c 0 -3.867187 3.136719 -7 7 -7 c 3.867188 0 7 3.132813 7 7 z m 0 0"/>
        <path d="m 111.449219 56.910156 c 0 3.867188 -3.132813 7 -7 7 c -3.867188 0 -7 -3.132812 -7 -7 c 0 -3.867187 3.132812 -7 7 -7 c 3.867187 0 7 3.132813 7 7 z m 0 0"/>
        <path d="m 31.097656 98.589844 c 0 3.863281 -3.132812 7 -7 7 c -3.863281 0 -7 -3.136719 -7 -7 c 0 -3.867188 3.136719 -7 7 -7 c 3.867188 0 7 3.132812 7 7 z m 0 0"/>
        <path d="m 111.449219 98.589844 c 0 3.863281 -3.132813 7 -7 7 c -3.867188 0 -7 -3.136719 -7 -7 c 0 -3.867188 3.132812 -7 7 -7 c 3.867187 0 7 3.132812 7 7 z m 0 0"/>
        <path d="m 41.828125 62.234375 h 44.890625 c 2.136719 0 3.867188 1.480469 3.867188 3.300781 v 24.429688 c 0 1.820312 -1.730469 3.296875 -3.867188 3.296875 h -44.890625 c -2.136719 0 -3.867187 -1.476563 -3.867187 -3.296875 v -24.429688 c 0 -1.820312 1.730468 -3.300781 3.867187 -3.300781 z m 0 0"/>
    </g>
    <path d="m 58.859836 79.53871 v 3.642079 l -5.521153 -5.46112 l 5.521153 -5.46112 v 3.102364 c 0 0.295844 0.239888 0.535718 0.535998 0.535718 h 9.606732 c 0.299859 0 0.539746 0.239873 0.539746 0.539715 v 1.363281" fill="none" stroke="#ffffff" stroke-linecap="round" stroke-linejoin="round" stroke-width="2.38314" transform="matrix(1.042157 0 0 0.977077 -4.177104 -0.297514)"/>
    <path d="m 77.136719 79.859375 l -5.558594 5.335937 v -3.636718 h -10.527344 c -0.308593 0 -0.558593 -0.234375 -0.558593 -0.523438 v -2.347656 c 0 -0.289062 0.25 -0.527344 0.558593 -0.527344 h 10.527344 v -3.636718 z m 0 0" fill="#ffffff"/>
</svg>
