<?xml version="1.0" encoding="UTF-8"?>
<svg height="128px" viewBox="0 0 128 128" width="128px" xmlns="http://www.w3.org/2000/svg" xmlns:xlink="http://www.w3.org/1999/xlink">
    <filter id="a" height="100%" width="100%" x="0%" y="0%">
        <feColorMatrix color-interpolation-filters="sRGB" values="0 0 0 0 1 0 0 0 0 1 0 0 0 0 1 0 0 0 1 0"/>
    </filter>
    <linearGradient id="b" gradientUnits="userSpaceOnUse">
        <stop offset="0" stop-color="#1a915a"/>
        <stop offset="0.036" stop-color="#5cdf97"/>
        <stop offset="0.07" stop-color="#26a269"/>
        <stop offset="0.929" stop-color="#26a269"/>
        <stop offset="0.964" stop-color="#5cdf97"/>
        <stop offset="1" stop-color="#1a915a"/>
    </linearGradient>
    <linearGradient id="c" gradientTransform="matrix(0.247525 0 0 0.211915 -13.376498 210.742687)" x1="88.595886" x2="536.595886" xlink:href="#b" y1="-449.394012" y2="-449.394012"/>
    <linearGradient id="d" gradientTransform="matrix(0.247525 0 0 0.212024 -13.376559 206.833017)" gradientUnits="userSpaceOnUse" x1="88.595886" x2="536.595886" y1="-449.394012" y2="-449.394012">
        <stop offset="0" stop-color="#1a915a" stop-opacity="0.819608"/>
        <stop offset="0.036" stop-color="#5cdf97" stop-opacity="0.819608"/>
        <stop offset="0.072" stop-color="#26a269" stop-opacity="0.819608"/>
        <stop offset="0.264475" stop-color="#2a8b5f" stop-opacity="0.819608"/>
        <stop offset="0.371042" stop-color="#26a269" stop-opacity="0.819608"/>
        <stop offset="0.691905" stop-color="#26a269" stop-opacity="0.819608"/>
        <stop offset="0.76993" stop-color="#2a8b5f" stop-opacity="0.819608"/>
        <stop offset="0.925002" stop-color="#2a8b5f" stop-opacity="0.819608"/>
        <stop offset="0.964" stop-color="#59cb8c" stop-opacity="0.819608"/>
        <stop offset="1" stop-color="#1a915a" stop-opacity="0.819608"/>
    </linearGradient>
    <linearGradient id="e" gradientTransform="matrix(0.247525 0 0 0.211915 -13.375562 204.749589)" x1="88.595886" x2="536.595886" xlink:href="#b" y1="-449.394012" y2="-449.394012"/>
    <linearGradient id="f" gradientUnits="userSpaceOnUse">
        <stop offset="0" stop-color="#1a915a" stop-opacity="0.819608"/>
        <stop offset="0.036" stop-color="#5cdf97" stop-opacity="0.819608"/>
        <stop offset="0.072" stop-color="#26a269" stop-opacity="0.819608"/>
        <stop offset="0.141489" stop-color="#2a8b5f" stop-opacity="0.819608"/>
        <stop offset="0.367412" stop-color="#26a269" stop-opacity="0.819608"/>
        <stop offset="0.69737" stop-color="#26a269" stop-opacity="0.819608"/>
        <stop offset="0.929" stop-color="#2a8b5f" stop-opacity="0.819608"/>
        <stop offset="0.964" stop-color="#59cb8c" stop-opacity="0.819608"/>
        <stop offset="1" stop-color="#258a5b" stop-opacity="0.819608"/>
    </linearGradient>
    <linearGradient id="g" gradientTransform="matrix(0.247525 0 0 0.211915 -13.376529 202.752666)" x1="88.595886" x2="536.595886" xlink:href="#f" y1="-449.394012" y2="-449.394012"/>
    <linearGradient id="h" gradientTransform="matrix(0.247525 0 0 0.211915 -13.375894 200.750853)" x1="88.595886" x2="536.595886" xlink:href="#b" y1="-449.394012" y2="-449.394012"/>
    <linearGradient id="i" gradientTransform="matrix(0.248261 0 0 0.179756 -13.622213 183.696953)" x1="88.595886" x2="536.595886" xlink:href="#f" y1="-449.394012" y2="-449.394012"/>
    <linearGradient id="j" gradientTransform="matrix(0.247525 0 0 0.211915 -13.328365 195.657593)" x1="88.595886" x2="536.595886" xlink:href="#b" y1="-449.394012" y2="-449.394012"/>
    <linearGradient id="k" gradientTransform="matrix(0.247429 0 0 0.179756 -13.402121 178.759629)" gradientUnits="userSpaceOnUse" x1="88.595886" x2="536.595886" y1="-449.394012" y2="-449.394012">
        <stop offset="0" stop-color="#1a915a" stop-opacity="0.819608"/>
        <stop offset="0.036" stop-color="#5cdf97" stop-opacity="0.819608"/>
        <stop offset="0.072" stop-color="#26a269" stop-opacity="0.819608"/>
        <stop offset="0.141489" stop-color="#2a8b5f" stop-opacity="0.819608"/>
        <stop offset="0.367412" stop-color="#26a269" stop-opacity="0.819608"/>
        <stop offset="0.62301" stop-color="#26a269" stop-opacity="0.819608"/>
        <stop offset="0.733295" stop-color="#2a8b5f" stop-opacity="0.819608"/>
        <stop offset="0.849177" stop-color="#2a8b5f" stop-opacity="0.819608"/>
        <stop offset="0.929" stop-color="#26a269" stop-opacity="0.819608"/>
        <stop offset="0.964" stop-color="#59cb8c" stop-opacity="0.819608"/>
        <stop offset="1" stop-color="#1a915a" stop-opacity="0.819608"/>
    </linearGradient>
    <linearGradient id="l" gradientTransform="matrix(0.247761 0 0 0.190813 -13.424271 181.943194)" x1="88.595886" x2="536.595886" xlink:href="#b" y1="-449.394012" y2="-449.394012"/>
    <clipPath id="m">
        <rect height="128" width="128"/>
    </clipPath>
    <clipPath id="n">
        <rect height="128" width="128"/>
    </clipPath>
    <mask id="o">
        <g filter="url(#a)">
            <g clip-path="url(#n)" filter="url(#a)">
                <g clip-path="url(#m)">
                    <path d="m 16.472656 51.085938 h 95.050782 c 4.375 0 7.921874 3.039062 7.921874 6.78125 v 50.859374 c 0 3.746094 -3.546874 6.78125 -7.921874 6.78125 h -95.050782 c -4.375 0 -7.917968 -3.035156 -7.917968 -6.78125 v -50.859374 c 0 -3.742188 3.542968 -6.78125 7.917968 -6.78125 z m 0 0" fill="url(#c)"/>
                    <path d="m 16.472656 47.089844 h 95.050782 c 4.375 0 7.921874 3.035156 7.921874 6.78125 v 50.890625 c 0 3.746093 -3.546874 6.78125 -7.921874 6.78125 h -95.050782 c -4.375 0 -7.917968 -3.035157 -7.917968 -6.78125 v -50.890625 c 0 -3.746094 3.542968 -6.78125 7.917968 -6.78125 z m 0 0" fill="url(#d)"/>
                    <path d="m 16.472656 45.089844 h 95.050782 c 4.375 0 7.921874 3.035156 7.921874 6.78125 v 50.859375 c 0 3.746093 -3.546874 6.78125 -7.921874 6.78125 h -95.050782 c -4.375 0 -7.917968 -3.035157 -7.917968 -6.78125 v -50.859375 c 0 -3.746094 3.542968 -6.78125 7.917968 -6.78125 z m 0 0" fill="url(#e)"/>
                    <path d="m 16.472656 43.089844 h 95.050782 c 4.375 0 7.921874 3.039062 7.921874 6.78125 v 50.859375 c 0 3.746093 -3.546874 6.78125 -7.921874 6.78125 h -95.050782 c -4.375 0 -7.917968 -3.035157 -7.917968 -6.78125 v -50.859375 c 0 -3.742188 3.542968 -6.78125 7.917968 -6.78125 z m 0 0" fill="url(#g)"/>
                    <path d="m 16.472656 41.09375 h 95.050782 c 4.375 0 7.921874 3.035156 7.921874 6.78125 v 50.859375 c 0 3.746094 -3.546874 6.78125 -7.921874 6.78125 h -95.050782 c -4.375 0 -7.917968 -3.035156 -7.917968 -6.78125 v -50.859375 c 0 -3.746094 3.542968 -6.78125 7.917968 -6.78125 z m 0 0" fill="url(#h)"/>
                    <path d="m 16.316406 48.265625 h 95.332032 c 4.386718 0 7.945312 2.574219 7.945312 5.75 v 43.144531 c 0 3.175782 -3.558594 5.75 -7.945312 5.75 h -95.332032 c -4.386718 0 -7.945312 -2.574218 -7.945312 -5.75 v -43.144531 c 0 -3.175781 3.558594 -5.75 7.945312 -5.75 z m 0 0" fill="url(#i)"/>
                    <path d="m 16.519531 36 h 95.050781 c 4.375 0 7.921876 3.035156 7.921876 6.78125 v 50.859375 c 0 3.746094 -3.546876 6.78125 -7.921876 6.78125 h -95.050781 c -4.371093 0 -7.917969 -3.035156 -7.917969 -6.78125 v -50.859375 c 0 -3.746094 3.546876 -6.78125 7.917969 -6.78125 z m 0 0" fill="url(#j)"/>
                    <path d="m 16.4375 43.328125 h 95.011719 c 4.375 0 7.917969 2.574219 7.917969 5.75 v 43.144531 c 0 3.175782 -3.542969 5.75 -7.917969 5.75 h -95.011719 c -4.375 0 -7.917969 -2.574218 -7.917969 -5.75 v -43.144531 c 0 -3.175781 3.542969 -5.75 7.917969 -5.75 z m 0 0" fill="url(#k)"/>
                    <path d="m 16.453125 38.183594 h 95.140625 c 4.378906 0 7.929688 2.734375 7.929688 6.105468 v 45.796876 c 0 3.371093 -3.550782 6.105468 -7.929688 6.105468 h -95.140625 c -4.378906 0 -7.925781 -2.734375 -7.925781 -6.105468 v -45.796876 c 0 -3.371093 3.546875 -6.105468 7.925781 -6.105468 z m 0 0" fill="url(#l)"/>
                    <path d="m 20.269531 27.917969 h 87.460938 c 6.570312 0 11.894531 4.597656 11.894531 10.265625 v 41.605468 c 0 5.777344 -5.425781 10.457032 -12.121094 10.457032 h -86.464844 c -6.996093 0 -12.667968 -4.894532 -12.667968 -10.929688 v -41.132812 c 0 -5.667969 5.328125 -10.265625 11.898437 -10.265625 z m 0 0" fill="#30cb84"/>
                    <path d="m 17.085938 36 h 93.921874 v 46.449219 h -93.921874 z m 0 0" fill="#4be69e"/>
                    <path d="m 111.007812 69.449219 v 13 h -13 c -0.601562 -6.660157 5.214844 -12.480469 13 -13 z m 0 0" fill="#30cb84"/>
                    <path d="m 17.085938 36 h 12.996093 c 0.148438 7.035156 -5.667969 12.855469 -12.996093 13 z m 0 0" fill="#30cb84"/>
                    <path d="m 41.410156 49.957031 h 45.179688 c 2.085937 0 3.765625 1.4375 3.765625 3.222657 v 11.808593 c 0 1.785157 -1.679688 3.222657 -3.765625 3.222657 h -45.179688 c -2.085937 0 -3.765625 -1.4375 -3.765625 -3.222657 v -11.808593 c 0 -1.785157 1.679688 -3.222657 3.765625 -3.222657 z m 0 0" fill="#30cb84"/>
                    <path d="m 51.914062 27.628906 h 24.117188 v 62.59375 h -24.117188 z m 0 0" fill="#ffffff"/>
                    <path d="m 51.914062 115.46875 h 24.117188 v -25.246094 h -24.117188 z m 0 0" fill="#dadada"/>
                    <path d="m 98.007812 36 h 13 v 13 c -7.328124 -0.144531 -13.148437 -5.964844 -13 -13 z m 0 0" fill="#30cb84"/>
                    <path d="m 17.085938 69.449219 c 7.179687 0 13 5.820312 12.996093 13 h -12.996093 z m 0 0" fill="#30cb84"/>
                    <path d="m 50.460938 70.609375 c 0 9.664063 -7.835938 17.5 -17.5 17.5 c -9.664063 0 -17.5 -7.835937 -17.5 -17.5 s 7.835937 -17.5 17.5 -17.5 c 9.664062 0 17.5 7.835937 17.5 17.5 z m 0 0" fill="#c79100"/>
                    <path d="m 50.460938 68.609375 c 0 9.664063 -7.835938 17.5 -17.5 17.5 c -9.664063 0 -17.5 -7.835937 -17.5 -17.5 s 7.835937 -17.5 17.5 -17.5 c 9.664062 0 17.5 7.835937 17.5 17.5 z m 0 0" fill="#fec11b"/>
                    <path d="m 17.498307 20.501829 h -10.999684 s 3.500592 -2.761799 3.500592 -7.000621 c 0 -2.827445 -2.08308 -3.84026 -2.113565 -6.19412 c 0 -4.665517 5.614157 -4.417002 7.56514 -2.564862 m -8.952167 8.758982 h 8.499987" fill="none" stroke="#fef5a0" stroke-linecap="round" stroke-linejoin="round" stroke-width="2.29785" transform="matrix(0.768843 0 0 0.833073 23.734046 58.615784)"/>
                    <path d="m 69.375 57.375 c 0 9.667969 -7.835938 17.5 -17.5 17.5 c -9.667969 0 -17.5 -7.832031 -17.5 -17.5 c 0 -9.664062 7.832031 -17.5 17.5 -17.5 c 9.664062 0 17.5 7.835938 17.5 17.5 z m 0 0" fill="#c79100"/>
                    <path d="m 69.375 55.375 c 0 9.667969 -7.835938 17.5 -17.5 17.5 c -9.667969 0 -17.5 -7.832031 -17.5 -17.5 c 0 -9.664062 7.832031 -17.5 17.5 -17.5 c 9.664062 0 17.5 7.835938 17.5 17.5 z m 0 0" fill="#fec11b"/>
                    <path d="m 52.707031 48.191406 c 0 -0.464844 -0.371093 -0.84375 -0.832031 -0.84375 s -0.835938 0.378906 -0.835938 0.84375 v 0.472656 c -0.972656 0.117188 -1.871093 0.445313 -2.585937 0.945313 c -0.917969 0.640625 -1.578125 1.617187 -1.578125 2.808594 c 0 1.078125 0.410156 2.078125 1.3125 2.78125 c 0.714844 0.558593 1.675781 0.886719 2.851562 0.988281 v 4.195312 c -0.652343 -0.105468 -1.214843 -0.332031 -1.636718 -0.628906 c -0.59375 -0.414062 -0.863282 -0.921875 -0.863282 -1.417968 c 0 -0.46875 -0.371093 -0.847657 -0.832031 -0.847657 c -0.460937 0 -0.832031 0.378907 -0.832031 0.847657 c 0 1.191406 0.660156 2.164062 1.578125 2.808593 c 0.714844 0.5 1.613281 0.824219 2.585937 0.945313 v 0.472656 c 0 0.464844 0.375 0.84375 0.835938 0.84375 s 0.832031 -0.378906 0.832031 -0.84375 v -0.472656 c 0.96875 -0.113282 1.863281 -0.421875 2.582031 -0.917969 c 0.929688 -0.636719 1.585938 -1.617187 1.585938 -2.835937 c 0 -1.105469 -0.40625 -2.113282 -1.320312 -2.816407 c -0.714844 -0.546875 -1.675782 -0.859375 -2.847657 -0.957031 v -4.191406 c 0.652344 0.105468 1.214844 0.332031 1.640625 0.628906 c 0.589844 0.414062 0.859375 0.917969 0.859375 1.417969 c 0 0.46875 0.375 0.84375 0.832031 0.84375 c 0.460938 0 0.835938 -0.375 0.835938 -0.84375 c 0 -1.191407 -0.664062 -2.167969 -1.582031 -2.808594 c -0.714844 -0.5 -1.609375 -0.828125 -2.585938 -0.945313 z m -1.667969 2.179688 c -0.652343 0.105468 -1.214843 0.332031 -1.636718 0.628906 c -0.59375 0.414062 -0.863282 0.917969 -0.863282 1.417969 c 0 0.613281 0.214844 1.09375 0.664063 1.441406 c 0.375 0.292969 0.960937 0.535156 1.835937 0.628906 z m 1.667969 5.890625 v 4.125 c 0.660157 -0.101563 1.222657 -0.320313 1.644531 -0.613281 c 0.578126 -0.398438 0.855469 -0.898438 0.855469 -1.4375 c 0 -0.65625 -0.21875 -1.128907 -0.660156 -1.464844 c -0.367187 -0.285156 -0.953125 -0.519532 -1.839844 -0.609375 z m 0 0" fill="#fef5a0" fill-rule="evenodd"/>
                </g>
            </g>
        </g>
    </mask>
    <mask id="p">
        <g filter="url(#a)">
            <rect fill-opacity="0.8" height="184.32" width="184.32" x="-28.16" y="-28.16"/>
        </g>
    </mask>
    <linearGradient id="q" gradientTransform="matrix(0 0.37 -0.98462 0 295.38501 -30.360001)" gradientUnits="userSpaceOnUse" x1="300" x2="428" y1="235" y2="235">
        <stop offset="0" stop-color="#f9f06b"/>
        <stop offset="1" stop-color="#f5c211"/>
    </linearGradient>
    <clipPath id="r">
        <rect height="128" width="128"/>
    </clipPath>
    <clipPath id="s">
        <rect height="128" width="128"/>
    </clipPath>
    <path d="m 16.472656 51.085938 h 95.050782 c 4.375 0 7.921874 3.039062 7.921874 6.78125 v 50.859374 c 0 3.746094 -3.546874 6.78125 -7.921874 6.78125 h -95.050782 c -4.375 0 -7.917968 -3.035156 -7.917968 -6.78125 v -50.859374 c 0 -3.742188 3.542968 -6.78125 7.917968 -6.78125 z m 0 0" fill="url(#c)"/>
    <path d="m 16.472656 47.089844 h 95.050782 c 4.375 0 7.921874 3.035156 7.921874 6.78125 v 50.890625 c 0 3.746093 -3.546874 6.78125 -7.921874 6.78125 h -95.050782 c -4.375 0 -7.917968 -3.035157 -7.917968 -6.78125 v -50.890625 c 0 -3.746094 3.542968 -6.78125 7.917968 -6.78125 z m 0 0" fill="url(#d)"/>
    <path d="m 16.472656 45.089844 h 95.050782 c 4.375 0 7.921874 3.035156 7.921874 6.78125 v 50.859375 c 0 3.746093 -3.546874 6.78125 -7.921874 6.78125 h -95.050782 c -4.375 0 -7.917968 -3.035157 -7.917968 -6.78125 v -50.859375 c 0 -3.746094 3.542968 -6.78125 7.917968 -6.78125 z m 0 0" fill="url(#e)"/>
    <path d="m 16.472656 43.089844 h 95.050782 c 4.375 0 7.921874 3.039062 7.921874 6.78125 v 50.859375 c 0 3.746093 -3.546874 6.78125 -7.921874 6.78125 h -95.050782 c -4.375 0 -7.917968 -3.035157 -7.917968 -6.78125 v -50.859375 c 0 -3.742188 3.542968 -6.78125 7.917968 -6.78125 z m 0 0" fill="url(#g)"/>
    <path d="m 16.472656 41.09375 h 95.050782 c 4.375 0 7.921874 3.035156 7.921874 6.78125 v 50.859375 c 0 3.746094 -3.546874 6.78125 -7.921874 6.78125 h -95.050782 c -4.375 0 -7.917968 -3.035156 -7.917968 -6.78125 v -50.859375 c 0 -3.746094 3.542968 -6.78125 7.917968 -6.78125 z m 0 0" fill="url(#h)"/>
    <path d="m 16.316406 48.265625 h 95.332032 c 4.386718 0 7.945312 2.574219 7.945312 5.75 v 43.144531 c 0 3.175782 -3.558594 5.75 -7.945312 5.75 h -95.332032 c -4.386718 0 -7.945312 -2.574218 -7.945312 -5.75 v -43.144531 c 0 -3.175781 3.558594 -5.75 7.945312 -5.75 z m 0 0" fill="url(#i)"/>
    <path d="m 16.519531 36 h 95.050781 c 4.375 0 7.921876 3.035156 7.921876 6.78125 v 50.859375 c 0 3.746094 -3.546876 6.78125 -7.921876 6.78125 h -95.050781 c -4.371093 0 -7.917969 -3.035156 -7.917969 -6.78125 v -50.859375 c 0 -3.746094 3.546876 -6.78125 7.917969 -6.78125 z m 0 0" fill="url(#j)"/>
    <path d="m 16.4375 43.328125 h 95.011719 c 4.375 0 7.917969 2.574219 7.917969 5.75 v 43.144531 c 0 3.175782 -3.542969 5.75 -7.917969 5.75 h -95.011719 c -4.375 0 -7.917969 -2.574218 -7.917969 -5.75 v -43.144531 c 0 -3.175781 3.542969 -5.75 7.917969 -5.75 z m 0 0" fill="url(#k)"/>
    <path d="m 16.453125 38.183594 h 95.140625 c 4.378906 0 7.929688 2.734375 7.929688 6.105468 v 45.796876 c 0 3.371093 -3.550782 6.105468 -7.929688 6.105468 h -95.140625 c -4.378906 0 -7.925781 -2.734375 -7.925781 -6.105468 v -45.796876 c 0 -3.371093 3.546875 -6.105468 7.925781 -6.105468 z m 0 0" fill="url(#l)"/>
    <path d="m 20.269531 27.917969 h 87.460938 c 6.570312 0 11.894531 4.597656 11.894531 10.265625 v 41.605468 c 0 5.777344 -5.425781 10.457032 -12.121094 10.457032 h -86.464844 c -6.996093 0 -12.667968 -4.894532 -12.667968 -10.929688 v -41.132812 c 0 -5.667969 5.328125 -10.265625 11.898437 -10.265625 z m 0 0" fill="#30cb84"/>
    <path d="m 17.085938 36 h 93.921874 v 46.449219 h -93.921874 z m 0 0" fill="#4be69e"/>
    <g fill="#30cb84">
        <path d="m 111.007812 69.449219 v 13 h -13 c -0.601562 -6.660157 5.214844 -12.480469 13 -13 z m 0 0"/>
        <path d="m 17.085938 36 h 12.996093 c 0.148438 7.035156 -5.667969 12.855469 -12.996093 13 z m 0 0"/>
        <path d="m 41.410156 49.957031 h 45.179688 c 2.085937 0 3.765625 1.4375 3.765625 3.222657 v 11.808593 c 0 1.785157 -1.679688 3.222657 -3.765625 3.222657 h -45.179688 c -2.085937 0 -3.765625 -1.4375 -3.765625 -3.222657 v -11.808593 c 0 -1.785157 1.679688 -3.222657 3.765625 -3.222657 z m 0 0"/>
    </g>
    <path d="m 51.914062 27.628906 h 24.117188 v 62.59375 h -24.117188 z m 0 0" fill="#ffffff"/>
    <path d="m 51.914062 115.46875 h 24.117188 v -25.246094 h -24.117188 z m 0 0" fill="#dadada"/>
    <path d="m 98.007812 36 h 13 v 13 c -7.328124 -0.144531 -13.148437 -5.964844 -13 -13 z m 0 0" fill="#30cb84"/>
    <path d="m 17.085938 69.449219 c 7.179687 0 13 5.820312 12.996093 13 h -12.996093 z m 0 0" fill="#30cb84"/>
    <path d="m 50.460938 70.609375 c 0 9.664063 -7.835938 17.5 -17.5 17.5 c -9.664063 0 -17.5 -7.835937 -17.5 -17.5 s 7.835937 -17.5 17.5 -17.5 c 9.664062 0 17.5 7.835937 17.5 17.5 z m 0 0" fill="#c79100"/>
    <path d="m 50.460938 68.609375 c 0 9.664063 -7.835938 17.5 -17.5 17.5 c -9.664063 0 -17.5 -7.835937 -17.5 -17.5 s 7.835937 -17.5 17.5 -17.5 c 9.664062 0 17.5 7.835937 17.5 17.5 z m 0 0" fill="#fec11b"/>
    <path d="m 17.498307 20.501829 h -10.999684 s 3.500592 -2.761799 3.500592 -7.000621 c 0 -2.827445 -2.08308 -3.84026 -2.113565 -6.19412 c 0 -4.665517 5.614157 -4.417002 7.56514 -2.564862 m -8.952167 8.758982 h 8.499987" fill="none" stroke="#fef5a0" stroke-linecap="round" stroke-linejoin="round" stroke-width="2.29785" transform="matrix(0.768843 0 0 0.833073 23.734046 58.615784)"/>
    <path d="m 69.375 57.375 c 0 9.667969 -7.835938 17.5 -17.5 17.5 c -9.667969 0 -17.5 -7.832031 -17.5 -17.5 c 0 -9.664062 7.832031 -17.5 17.5 -17.5 c 9.664062 0 17.5 7.835938 17.5 17.5 z m 0 0" fill="#c79100"/>
    <path d="m 69.375 55.375 c 0 9.667969 -7.835938 17.5 -17.5 17.5 c -9.667969 0 -17.5 -7.832031 -17.5 -17.5 c 0 -9.664062 7.832031 -17.5 17.5 -17.5 c 9.664062 0 17.5 7.835938 17.5 17.5 z m 0 0" fill="#fec11b"/>
    <path d="m 52.707031 48.191406 c 0 -0.464844 -0.371093 -0.84375 -0.832031 -0.84375 s -0.835938 0.378906 -0.835938 0.84375 v 0.472656 c -0.972656 0.117188 -1.871093 0.445313 -2.585937 0.945313 c -0.917969 0.640625 -1.578125 1.617187 -1.578125 2.808594 c 0 1.078125 0.410156 2.078125 1.3125 2.78125 c 0.714844 0.558593 1.675781 0.886719 2.851562 0.988281 v 4.195312 c -0.652343 -0.105468 -1.214843 -0.332031 -1.636718 -0.628906 c -0.59375 -0.414062 -0.863282 -0.921875 -0.863282 -1.417968 c 0 -0.46875 -0.371093 -0.847657 -0.832031 -0.847657 c -0.460937 0 -0.832031 0.378907 -0.832031 0.847657 c 0 1.191406 0.660156 2.164062 1.578125 2.808593 c 0.714844 0.5 1.613281 0.824219 2.585937 0.945313 v 0.472656 c 0 0.464844 0.375 0.84375 0.835938 0.84375 s 0.832031 -0.378906 0.832031 -0.84375 v -0.472656 c 0.96875 -0.113282 1.863281 -0.421875 2.582031 -0.917969 c 0.929688 -0.636719 1.585938 -1.617187 1.585938 -2.835937 c 0 -1.105469 -0.40625 -2.113282 -1.320312 -2.816407 c -0.714844 -0.546875 -1.675782 -0.859375 -2.847657 -0.957031 v -4.191406 c 0.652344 0.105468 1.214844 0.332031 1.640625 0.628906 c 0.589844 0.414062 0.859375 0.917969 0.859375 1.417969 c 0 0.46875 0.375 0.84375 0.832031 0.84375 c 0.460938 0 0.835938 -0.375 0.835938 -0.84375 c 0 -1.191407 -0.664062 -2.167969 -1.582031 -2.808594 c -0.714844 -0.5 -1.609375 -0.828125 -2.585938 -0.945313 z m -1.667969 2.179688 c -0.652343 0.105468 -1.214843 0.332031 -1.636718 0.628906 c -0.59375 0.414062 -0.863282 0.917969 -0.863282 1.417969 c 0 0.613281 0.214844 1.09375 0.664063 1.441406 c 0.375 0.292969 0.960937 0.535156 1.835937 0.628906 z m 1.667969 5.890625 v 4.125 c 0.660157 -0.101563 1.222657 -0.320313 1.644531 -0.613281 c 0.578126 -0.398438 0.855469 -0.898438 0.855469 -1.4375 c 0 -0.65625 -0.21875 -1.128907 -0.660156 -1.464844 c -0.367187 -0.285156 -0.953125 -0.519532 -1.839844 -0.609375 z m 0 0" fill="#fef5a0" fill-rule="evenodd"/>
    <g mask="url(#o)">
        <g clip-path="url(#s)">
            <g mask="url(#p)">
                <g clip-path="url(#r)">
                    <path d="m 128 80.640625 v 47.359375 h -128 v -47.359375 z m 0 0" fill="url(#q)"/>
                    <path d="m 13.308594 80.640625 l 47.355468 47.359375 h 21.214844 l -47.359375 -47.359375 z m 42.421875 0 l 47.363281 47.359375 h 21.214844 l -47.363282 -47.359375 z m 42.429687 0 l 29.839844 29.839844 v -21.210938 l -8.628906 -8.628906 z m -98.160156 7.90625 v 21.214844 l 18.238281 18.238281 h 21.214844 z m 0 0"/>
                </g>
            </g>
        </g>
    </g>
</svg>
